<svg xmlns="http://www.w3.org/2000/svg" xmlns:xlink="http://www.w3.org/1999/xlink">

<symbol id="dribbble" fill-rule="evenodd" clip-rule="evenodd" stroke-linejoin="round" stroke-miterlimit="1.414"><path d="M8 16c-4.41 0-8-3.59-8-8s3.59-8 8-8 8 3.59 8 8-3.59 8-8 8zm6.747-6.905c-.234-.074-2.115-.635-4.257-.292.894 2.456 1.258 4.456 1.328 4.872 1.533-1.037 2.624-2.68 2.93-4.58zM10.67 14.3c-.102-.6-.5-2.688-1.46-5.18l-.044.014C5.312 10.477 3.93 13.15 3.806 13.4c1.158.905 2.614 1.444 4.194 1.444.947 0 1.85-.194 2.67-.543zm-7.747-1.72c.155-.266 2.03-3.37 5.555-4.51.09-.03.18-.056.27-.08-.173-.39-.36-.778-.555-1.16-3.413 1.02-6.723.977-7.023.97l-.003.208c0 1.755.665 3.358 1.756 4.57zM1.31 6.61c.307.005 3.122.017 6.318-.832-1.132-2.012-2.353-3.705-2.533-3.952-1.912.902-3.34 2.664-3.784 4.785zM6.4 1.368c.188.253 1.43 1.943 2.548 4 2.43-.91 3.46-2.293 3.582-2.468C11.323 1.827 9.736 1.176 8 1.176c-.55 0-1.087.066-1.6.19zm6.89 2.322c-.145.194-1.29 1.662-3.816 2.694.16.325.31.656.453.99.05.117.1.235.147.352 2.274-.286 4.533.172 4.758.22-.015-1.613-.59-3.094-1.543-4.257z"/></symbol>

<symbol id="flickr" fill-rule="evenodd" clip-rule="evenodd" stroke-linejoin="round" stroke-miterlimit="1.414"><path d="M0 8c0 2.05 1.662 3.71 3.71 3.71 2.05 0 3.713-1.66 3.713-3.71S5.76 4.29 3.71 4.29C1.663 4.29 0 5.95 0 8zm8.577 0c0 2.05 1.662 3.71 3.712 3.71C14.33 11.71 16 10.05 16 8s-1.662-3.71-3.71-3.71c-2.05 0-3.713 1.66-3.713 3.71z"/></symbol>

<symbol id="github" fill-rule="evenodd" clip-rule="evenodd" stroke-linejoin="round" stroke-miterlimit="1.414" viewBox="0 0 18 18">
	<path d="M8 0C3.58 0 0 3.582 0 8c0 3.535 2.292 6.533 5.47 7.59.4.075.547-.172.547-.385 0-.19-.007-.693-.01-1.36-2.226.483-2.695-1.073-2.695-1.073-.364-.924-.89-1.17-.89-1.17-.725-.496.056-.486.056-.486.803.056 1.225.824 1.225.824.714 1.223 1.873.87 2.33.665.072-.517.278-.87.507-1.07-1.777-.2-3.644-.888-3.644-3.953 0-.873.31-1.587.823-2.147-.09-.202-.36-1.015.07-2.117 0 0 .67-.215 2.2.82.64-.178 1.32-.266 2-.27.68.004 1.36.092 2 .27 1.52-1.035 2.19-.82 2.19-.82.43 1.102.16 1.915.08 2.117.51.56.82 1.274.82 2.147 0 3.073-1.87 3.75-3.65 3.947.28.24.54.73.54 1.48 0 1.07-.01 1.93-.01 2.19 0 .21.14.46.55.38C13.71 14.53 16 11.53 16 8c0-4.418-3.582-8-8-8"/>
</symbol>

<symbol id="linkedin" fill-rule="evenodd" clip-rule="evenodd" stroke-linejoin="round" stroke-miterlimit="1.414" viewBox="0 0 18 18">
	<path d="M13.632 13.635h-2.37V9.922c0-.886-.018-2.025-1.234-2.025-1.235 0-1.424.964-1.424 1.96v3.778h-2.37V6H8.51v1.04h.03c.318-.6 1.092-1.233 2.247-1.233 2.4 0 2.845 1.58 2.845 3.637v4.188zM3.558 4.955c-.762 0-1.376-.617-1.376-1.377 0-.758.614-1.375 1.376-1.375.76 0 1.376.617 1.376 1.375 0 .76-.617 1.377-1.376 1.377zm1.188 8.68H2.37V6h2.376v7.635zM14.816 0H1.18C.528 0 0 .516 0 1.153v13.694C0 15.484.528 16 1.18 16h13.635c.652 0 1.185-.516 1.185-1.153V1.153C16 .516 15.467 0 14.815 0z" fill-rule="nonzero"/>
</symbol>

<symbol id="rss" fill-rule="evenodd" clip-rule="evenodd" stroke-linejoin="round" stroke-miterlimit="1.414"><path d="M12.8 16C12.8 8.978 7.022 3.2 0 3.2V0c8.777 0 16 7.223 16 16h-3.2zM2.194 11.61c1.21 0 2.195.985 2.195 2.196 0 1.21-.99 2.194-2.2 2.194C.98 16 0 15.017 0 13.806c0-1.21.983-2.195 2.194-2.195zM10.606 16h-3.11c0-4.113-3.383-7.497-7.496-7.497v-3.11c5.818 0 10.606 4.79 10.606 10.607z"/></symbol>

<symbol id="stackoverflow" class="svg-icon" fill-rule="evenodd" clip-rule="evenodd" stroke-linejoin="round" stroke-miterlimit="1.414"><path d="M12.658 14.577v-4.27h1.423V16H1.23v-5.693h1.42v4.27h10.006zm-8.583-1.423h7.16V11.73h-7.16v1.424zm.173-3.235l6.987 1.46.3-1.38L4.55 8.54l-.302 1.38zm.906-3.37l6.47 3.02.602-1.3-6.47-3.02-.602 1.29zm1.81-3.19l5.478 4.57.906-1.08L7.87 2.28l-.9 1.078zM10.502 0L9.338.863l4.27 5.735 1.164-.862L10.5 0z"/></symbol>

<symbol id="twitter" fill-rule="evenodd" clip-rule="evenodd" stroke-linejoin="round" stroke-miterlimit="1.414" viewBox="0 0 18 18">
	<path d="M16 3.038c-.59.26-1.22.437-1.885.517.677-.407 1.198-1.05 1.443-1.816-.634.37-1.337.64-2.085.79-.598-.64-1.45-1.04-2.396-1.04-1.812 0-3.282 1.47-3.282 3.28 0 .26.03.51.085.75-2.728-.13-5.147-1.44-6.766-3.42C.83 2.58.67 3.14.67 3.75c0 1.14.58 2.143 1.46 2.732-.538-.017-1.045-.165-1.487-.41v.04c0 1.59 1.13 2.918 2.633 3.22-.276.074-.566.114-.865.114-.21 0-.41-.02-.61-.058.42 1.304 1.63 2.253 3.07 2.28-1.12.88-2.54 1.404-4.07 1.404-.26 0-.52-.015-.78-.045 1.46.93 3.18 1.474 5.04 1.474 6.04 0 9.34-5 9.34-9.33 0-.14 0-.28-.01-.42.64-.46 1.2-1.04 1.64-1.7z" fill-rule="nonzero"/>
</symbol>

<symbol id="youtube" fill-rule="evenodd" clip-rule="evenodd" stroke-linejoin="round" stroke-miterlimit="1.414"><path d="M0 7.345c0-1.294.16-2.59.16-2.59s.156-1.1.636-1.587c.608-.637 1.408-.617 1.764-.684C3.84 2.36 8 2.324 8 2.324s3.362.004 5.6.166c.314.038.996.04 1.604.678.48.486.636 1.588.636 1.588S16 6.05 16 7.346v1.258c0 1.296-.16 2.59-.16 2.59s-.156 1.102-.636 1.588c-.608.638-1.29.64-1.604.678-2.238.162-5.6.166-5.6.166s-4.16-.037-5.44-.16c-.356-.067-1.156-.047-1.764-.684-.48-.487-.636-1.587-.636-1.587S0 9.9 0 8.605v-1.26zm6.348 2.73V5.58l4.323 2.255-4.32 2.24z"/></symbol>

<symbol id="mastodon" fill-rule="evenodd" clip-rule="evenodd" stroke-linejoin="round" stroke-miterlimit="1.414">
  <path transform="scale(0.07)" d="M211.80734 139.0875c-3.18125 16.36625-28.4925 34.2775-57.5625 37.74875-15.15875 1.80875-30.08375 3.47125-45.99875 2.74125-26.0275-1.1925-46.565-6.2125-46.565-6.2125 0 2.53375.15625 4.94625.46875 7.2025 3.38375 25.68625 25.47 27.225 46.39125 27.9425 21.11625.7225 39.91875-5.20625 39.91875-5.20625l.8675 19.09s-14.77 7.93125-41.08125 9.39c-14.50875.7975-32.52375-.365-53.50625-5.91875C9.23234 213.82 1.40609 165.31125.20859 116.09125c-.365-14.61375-.14-28.39375-.14-39.91875 0-50.33 32.97625-65.0825 32.97625-65.0825C49.67234 3.45375 78.20359.2425 107.86484 0h.72875c29.66125.2425 58.21125 3.45375 74.8375 11.09 0 0 32.975 14.7525 32.975 65.0825 0 0 .41375 37.13375-4.59875 62.915"/>
  <path transform="scale(0.07)" fill="#FFF" d="M177.50984 80.077v60.94125h-24.14375v-59.15c0-12.46875-5.24625-18.7975-15.74-18.7975-11.6025 0-17.4175 7.5075-17.4175 22.3525v32.37625H96.20734V85.42325c0-14.845-5.81625-22.3525-17.41875-22.3525-10.49375 0-15.74 6.32875-15.74 18.7975v59.15H38.90484V80.077c0-12.455 3.17125-22.3525 9.54125-29.675 6.56875-7.3225 15.17125-11.07625 25.85-11.07625 12.355 0 21.71125 4.74875 27.8975 14.2475l6.01375 10.08125 6.015-10.08125c6.185-9.49875 15.54125-14.2475 27.8975-14.2475 10.6775 0 19.28 3.75375 25.85 11.07625 6.36875 7.3225 9.54 17.22 9.54 29.675"/>
</symbol>

<symbol id="telegram" fill-rule="evenodd" clip-rule="evenodd" stroke-linejoin="round" stroke-miterlimit="1.414" viewBox="0 0 1792 1792">
        <path d="M1189 1307l147-693q9-44-10.5-63t-51.5-7l-864 333q-29 11-39.5 25t-2.5 26.5 32 19.5l221 69 513-323q21-14 32-6 7 5-4 15l-415 375-16 228q23 0 45-22l108-104 224 165q64 36 81-38zm603-411q0 182-71 348t-191 286-286 191-348 71-348-71-286-191-191-286-71-348 71-348 191-286 286-191 348-71 348 71 286 191 191 286 71 348z"/>
</symbol>

<symbol id="keybase" fill-rule="evenodd" clip-rule="evenodd" stroke-linejoin="round" stroke-miterlimit="1.414" viewBox="0 0 50 50">
  <path d="M31.5 40A1.5 1.5 0 1 0 31.5 43 1.5 1.5 0 1 0 31.5 40zM20.5 40A1.5 1.5 0 1 0 20.5 43 1.5 1.5 0 1 0 20.5 40z"/><path fill="none" stroke="#000" stroke-linecap="round" stroke-miterlimit="10" stroke-width="2" d="M7.167 39c.289 2.14.955 4.157 1.91 6M19.25 13h-4.5C14.336 13 14 12.664 14 12.25v-4.5C14 7.336 14.336 7 14.75 7h4.5C19.664 7 20 7.336 20 7.75v3"/><path d="M25.5,23c-4.136,0-7.5-3.364-7.5-7.5c0-6.863,5.59-12.023,5.827-12.24c0.345-0.313,0.858-0.346,1.242-0.082c0.383,0.265,0.531,0.76,0.359,1.192C25,5.45,24.614,7.253,25.007,7.831C25.041,7.882,25.122,8,25.5,8c4.136,0,7.5,3.364,7.5,7.5S29.636,23,25.5,23z"/><path d="M44.938,34.942c-0.482-6.158-3.811-11.592-8.878-14.837c-0.041-0.026-0.081-0.054-0.122-0.08c-0.336-0.211-0.681-0.41-1.031-0.602c-0.123-0.068-0.244-0.137-0.369-0.202c-0.082-0.043-0.168-0.08-0.251-0.121c-0.63,1.531-1.649,2.862-2.932,3.871l3.352,3.352c0.391,0.391,0.391,1.023,0,1.414c-0.195,0.195-0.451,0.293-0.707,0.293s-0.512-0.098-0.707-0.293l-0.837-0.837l-1.808,1.808C30.453,28.902,30.197,29,29.941,29s-0.512-0.098-0.707-0.293c-0.391-0.391-0.391-1.023,0-1.414l1.808-1.808L30,24.443l-1.293,1.293c-0.195,0.195-0.451,0.293-0.707,0.293s-0.512-0.098-0.707-0.293c-0.236-0.236-0.311-0.557-0.263-0.862C26.532,24.955,26.021,25,25.5,25c-4.033,0-7.478-2.53-8.854-6.083C9.218,22.402,5,30.302,5,41v3l1.8-2.4c1.86-2.48,4.12-4.968,6.266-6.95c-0.528,1.41-0.882,2.821-1.058,4.226l-0.314,2.514l1.947-1.622C13.697,39.721,19.437,35,26,35c3.219,0,4.979,0.298,6.531,0.562C33.861,35.787,35.118,36,37,36c3.1,0,4.797-1.585,5.537-3.485c0.197,0.844,0.336,1.707,0.407,2.586C42.98,35.564,43,36.03,43,36.5c0,2.818-0.662,5.522-1.968,8.04c-0.254,0.49-0.063,1.094,0.427,1.348C41.606,45.964,41.764,46,41.919,46c0.361,0,0.711-0.196,0.889-0.54C44.263,42.656,45,39.642,45,36.5C45,35.977,44.979,35.457,44.938,34.942z"/>
</symbol>

<symbol id="devto" fill-rule="evenodd" clip-rule="evenodd" stroke-linejoin="round" stroke-miterlimit="1.414">
  <path transform="scale(0.039)" d="M10.5 2.5C5.6 4.2 2.4 7.8 1 12.9.3 15.6.1 77.2.2 207.1.5 396.6.5 397.5 2.5 401c1.2 1.9 3.6 4.3 5.5 5.5 3.5 2 4.2 2 196 2s192.5 0 196-2c1.9-1.2 4.3-3.6 5.5-5.5 2-3.5 2-4.2 2-196s0-192.5-2-196c-1.2-1.9-3.6-4.3-5.5-5.5-3.5-2-4.4-2-194.5-2.2-162.9-.2-191.6 0-195 1.2zm96.8 124c9 1.9 15.5 5.6 22.2 12.6 6.1 6.4 9.9 13.7 11.5 21.9 1.3 6.9 1.3 81.1 0 88.1-3.4 18.2-18.9 32.4-38.1 34.9-4 .5-17.4 1-29.6 1H51V125h24.8c17.6 0 26.6.4 31.5 1.5zm130.7 13V154h-51v36h31v29h-31l.2 18.2.3 18.3 25.3.3 25.2.2v29h-29.5c-32.8 0-37.9-.6-43.1-5.2-7.3-6.4-6.9-2.3-7.2-72.6-.2-43.8.1-64.5.8-67.3 1.4-5.2 7.3-11.6 12.5-13.4 3.1-1.1 10.9-1.4 35.3-1.5H238v14.5zm48.9-12.3c.4 1.3 6.8 25.6 14.2 54 7.4 28.5 13.6 51.2 13.8 50.5.3-.7 6.6-24.8 14.1-53.7l13.7-52.5 15.6-.3c11.8-.2 15.7.1 15.7 1s-34.6 132.4-36.6 139c-1.4 4.6-8.9 14-13.1 16.5-5.3 3-13.1 3.5-17.9 1-4.3-2.2-10-8.8-12.9-15-1.8-3.8-31.2-112-38-140l-.7-2.7h15.6c15.3 0 15.7 0 16.5 2.2z"/>
  <path transform="scale(0.039)" d="M80 205v51.2l10.3-.4c8.9-.3 10.8-.7 14.8-3 7.8-4.6 7.9-4.9 7.9-48.4 0-42.4 0-42.4-7.3-47.2-3.6-2.4-5.1-2.7-14.9-3.1l-10.8-.3V205z"/>
</symbol>

<symbol id="gitlab" fill-rule="evenodd" clip-rule="evenodd" stroke-linejoin="round" stroke-miterlimit="1.414" viewBox="0 0 1792 1792">
  <path d="M104 706l792 1015-868-630q-18-13-25-34.5t0-42.5l101-308zm462 0h660l-330 1015zm-198-612l198 612h-462l198-612q8-23 33-23t33 23zm1320 612l101 308q7 21 0 42.5t-25 34.5l-868 630 792-1015zm0 0h-462l198-612q8-23 33-23t33 23z"/>
</symbol>

<symbol id="reddit" fill-rule="evenodd" clip-rule="evenodd" viewBox="0 0 20 20" stroke-linejoin="round" stroke-miterlimit="1.414">
	<path d="M12.2206 13.0245C12.3399 13.1438 12.3399 13.2587 12.2206 13.3703C11.7593 13.8316 11.0193 14.0626 9.99992 14.0626C8.98056 14.0626 8.24056 13.8316 7.77863 13.3703C7.65992 13.2587 7.65992 13.1438 7.77863 13.0245C7.80051 13.0024 7.82669 12.9851 7.85554 12.9735C7.88439 12.962 7.91531 12.9565 7.94637 12.9574C8.01347 12.9574 8.06895 12.98 8.11411 13.0245C8.47089 13.389 9.09927 13.5716 9.99992 13.5716C10.8928 13.5716 11.5212 13.389 11.8864 13.0245C11.9082 13.0025 11.9342 12.9852 11.963 12.9737C11.9917 12.9621 12.0225 12.9566 12.0535 12.9574C12.1206 12.9574 12.176 12.98 12.2212 13.0245H12.2206ZM8.79476 11.0045C8.79476 11.28 8.69798 11.5142 8.50444 11.7077C8.31089 11.9013 8.07669 11.998 7.80121 11.998C7.66965 12 7.53905 11.9753 7.4173 11.9254C7.29555 11.8755 7.18517 11.8014 7.09282 11.7077C6.99746 11.6174 6.92189 11.5083 6.87092 11.3872C6.81994 11.2662 6.79467 11.1358 6.79669 11.0045C6.79669 10.7219 6.8954 10.4839 7.09282 10.2903C7.2896 10.0968 7.52573 9.99998 7.80121 9.99998C8.07669 9.99998 8.31089 10.0987 8.50444 10.2955C8.69798 10.4929 8.79476 10.729 8.79476 11.0045ZM13.2031 11.0045C13.2031 11.28 13.1044 11.5142 12.907 11.7077C12.7102 11.9013 12.4741 11.998 12.1986 11.998C11.9231 11.998 11.689 11.9013 11.4954 11.7077C11.3019 11.5142 11.2051 11.28 11.2051 11.0045C11.2051 10.729 11.3019 10.4929 11.4954 10.2955C11.5858 10.2002 11.6949 10.1248 11.816 10.0739C11.9371 10.023 12.0673 9.99787 12.1986 9.99998C12.4741 9.99998 12.7102 10.0968 12.907 10.2903C13.1044 10.4839 13.2031 10.7219 13.2031 11.0045ZM16.0044 9.66514C16.0044 9.30062 15.8741 8.98772 15.6141 8.72772C15.491 8.60116 15.3433 8.50116 15.1801 8.43392C15.0169 8.36667 14.8416 8.33361 14.6651 8.33675C14.4861 8.33459 14.3086 8.36914 14.1434 8.43827C13.9783 8.5074 13.8291 8.60964 13.7051 8.73869C12.738 8.06901 11.5812 7.71224 10.2341 7.66772L10.9373 4.50901L13.1696 5.01095C13.1696 5.28643 13.2664 5.52063 13.4599 5.71417C13.6535 5.90772 13.8877 6.0045 14.1631 6.0045C14.438 6.0045 14.6741 5.90579 14.8715 5.70837C15.069 5.51159 15.1677 5.27546 15.1677 4.99998C15.1677 4.7245 15.069 4.48837 14.8715 4.29159C14.7799 4.19649 14.6698 4.12115 14.548 4.07022C14.4262 4.01929 14.2952 3.99385 14.1631 3.99546C13.7612 3.99546 13.4638 4.18127 13.2702 4.55353L10.8038 4.00643C10.6619 3.96966 10.569 4.02901 10.5244 4.18514L9.75411 7.66708C8.4154 7.71933 7.26573 8.07998 6.30573 8.74966C6.18245 8.61588 6.0321 8.50987 5.86469 8.43868C5.69728 8.36749 5.51663 8.33274 5.33476 8.33675C4.9625 8.33675 4.64637 8.46708 4.38637 8.72772C4.26063 8.84898 4.16106 8.99472 4.09382 9.15595C4.02658 9.31717 3.99308 9.49047 3.9954 9.66514C3.9954 9.92579 4.06444 10.1639 4.20186 10.3793C4.33927 10.5955 4.52379 10.7587 4.75411 10.8703C4.70924 11.0759 4.68695 11.2857 4.68766 11.4961C4.68766 12.5522 5.20831 13.4561 6.2496 14.2077C7.29153 14.9593 8.54508 15.3348 10.0109 15.3348C11.4844 15.3348 12.7419 14.9593 13.7831 14.2077C14.8251 13.4561 15.3457 12.5522 15.3457 11.4955C15.3457 11.2574 15.3199 11.0451 15.2683 10.8593C15.4906 10.7494 15.6775 10.5791 15.8076 10.3679C15.9376 10.1567 16.0056 9.91316 16.0038 9.66514H16.0044ZM19.9999 9.99998C19.9999 11.3542 19.7354 12.649 19.2077 13.8839C18.6786 15.1193 17.969 16.1832 17.076 17.0761C16.1831 17.969 15.1186 18.6793 13.8838 19.2077C12.6569 19.7343 11.3351 20.0039 9.99992 20C8.64573 20 7.35089 19.7355 6.11605 19.2077C4.88056 18.6787 3.81669 17.969 2.92379 17.0761C2.03089 16.1832 1.32057 15.1187 0.792178 13.8839C0.265631 12.6569 -0.00399719 11.3351 -7.99932e-05 9.99998C-7.99932e-05 8.64579 0.264436 7.35095 0.792178 6.11611C1.32121 4.88063 2.03089 3.81675 2.92379 2.92385C3.81669 2.03095 4.88056 1.32063 6.11605 0.792239C7.34298 0.265692 8.66478 -0.00393615 9.99992 -1.89581e-05C11.3541 -1.89581e-05 12.649 0.264497 13.8838 0.792239C15.1193 1.32127 16.1831 2.03095 17.076 2.92385C17.969 3.81675 18.6793 4.88063 19.2077 6.11611C19.7342 7.34304 20.0038 8.66484 19.9999 9.99998V9.99998Z"/>
</symbol>

<symbol id="link" fill-rule="evenodd" clip-rule="evenodd" viewBox="0 0 20 20" stroke-linejoin="round" stroke-miterlimit="1.414">
  <path d="M16.469,8.924l-2.414,2.413c-0.156,0.156-0.408,0.156-0.564,0c-0.156-0.155-0.156-0.408,0-0.563l2.414-2.414c1.175-1.175,1.175-3.087,0-4.262c-0.57-0.569-1.326-0.883-2.132-0.883s-1.562,0.313-2.132,0.883L9.227,6.511c-1.175,1.175-1.175,3.087,0,4.263c0.288,0.288,0.624,0.511,0.997,0.662c0.204,0.083,0.303,0.315,0.22,0.52c-0.171,0.422-0.643,0.17-0.52,0.22c-0.473-0.191-0.898-0.474-1.262-0.838c-1.487-1.485-1.487-3.904,0-5.391l2.414-2.413c0.72-0.72,1.678-1.117,2.696-1.117s1.976,0.396,2.696,1.117C17.955,5.02,17.955,7.438,16.469,8.924 M10.076,7.825c-0.205-0.083-0.437,0.016-0.52,0.22c-0.083,0.205,0.016,0.437,0.22,0.52c0.374,0.151,0.709,0.374,0.997,0.662c1.176,1.176,1.176,3.088,0,4.263l-2.414,2.413c-0.569,0.569-1.326,0.883-2.131,0.883s-1.562-0.313-2.132-0.883c-1.175-1.175-1.175-3.087,0-4.262L6.51,9.227c0.156-0.155,0.156-0.408,0-0.564c-0.156-0.156-0.408-0.156-0.564,0l-2.414,2.414c-1.487,1.485-1.487,3.904,0,5.391c0.72,0.72,1.678,1.116,2.696,1.116s1.976-0.396,2.696-1.116l2.414-2.413c1.487-1.486,1.487-3.905,0-5.392C10.974,8.298,10.55,8.017,10.076,7.825"></path>
</symbol>

</svg>

